<svg xmlns="http://www.w3.org/2000/svg" viewBox="0 0 509.35 441.11"><defs><style>.cls-1,.cls-2,.cls-3{fill:none;stroke:#000;stroke-miterlimit:10;}.cls-1{stroke-width:12.71px;}.cls-2{stroke-width:16.95px;}.cls-3{stroke-width:11.65px;}</style></defs><g id="Layer_2" data-name="Layer 2"><g id="Layer_6" data-name="Layer 6"><line class="cls-1" x1="255.71" y1="218.7" x2="254.68" y2="67.86"/><line class="cls-1" x1="215.88" y1="138.72" x2="237.52" y2="221.67"/><line class="cls-1" x1="291.24" y1="228.25" x2="319.53" y2="180.2"/><line class="cls-1" x1="305.39" y1="237.52" x2="336.34" y2="209.3"/><line class="cls-1" x1="320.86" y1="251.53" x2="350.84" y2="234.42"/><line class="cls-1" x1="220.18" y1="228.25" x2="187.93" y2="173.16"/><line class="cls-1" x1="205.48" y1="239.64" x2="173.83" y2="206.34"/><line class="cls-1" x1="158.51" y1="234.42" x2="187.93" y2="251.53"/><line class="cls-1" x1="143.52" y1="260.38" x2="167.3" y2="266.36"/><line class="cls-1" x1="126.62" y1="289.66" x2="152.68" y2="289.66"/><line class="cls-1" x1="167.3" y1="312.96" x2="104.03" y2="328.78"/><line class="cls-1" x1="205.48" y1="339.78" x2="139.65" y2="407.18"/><line class="cls-1" x1="220.18" y1="351.07" x2="187.93" y2="407.18"/><line class="cls-1" x1="237.52" y1="358.26" x2="223.68" y2="407.18"/><line class="cls-1" x1="255.71" y1="360.62" x2="254.68" y2="407.18"/><line class="cls-1" x1="273.9" y1="358.26" x2="287.02" y2="407.18"/><line class="cls-1" x1="291.24" y1="351.07" x2="323.92" y2="407.18"/><line class="cls-1" x1="436.39" y1="398.41" x2="327.73" y2="332.02"/><line class="cls-1" x1="341.32" y1="312.96" x2="405.32" y2="328.78"/><line class="cls-1" x1="381.06" y1="288.87" x2="359.42" y2="288.87"/><line class="cls-1" x1="344.56" y1="376.06" x2="375.72" y2="407.24"/><line class="cls-1" x1="308.35" y1="339.83" x2="333.72" y2="365.22"/><line class="cls-1" x1="143.52" y1="353.36" x2="182.92" y2="328.84"/><line class="cls-1" x1="56.93" y1="407.24" x2="124.46" y2="365.22"/><line class="cls-1" x1="344.56" y1="266.88" x2="367.99" y2="259.02"/><line class="cls-1" x1="287.14" y1="173.49" x2="296.72" y2="137.12"/><line class="cls-1" x1="275.03" y1="219.46" x2="281.04" y2="196.63"/></g><g id="Layer_7" data-name="Layer 7"><path class="cls-1" d="M149.9,289.66s104.19-158.86,210.91,0"/><path class="cls-1" d="M361.69,289S257.5,447.82,150.78,289"/></g><g id="Layer_2-2" data-name="Layer 2"><polygon class="cls-2" points="254.68 16.95 494.68 432.64 14.68 432.64 254.68 16.95"/></g><g id="Layer_2_copy" data-name="Layer 2 copy"><polygon class="cls-2" points="254.68 67.86 450.58 407.18 58.77 407.18 254.68 67.86"/></g><g id="Layer_4" data-name="Layer 4"><circle class="cls-1" cx="255.71" cy="289.66" r="70.96"/></g><g id="Layer_4_copy" data-name="Layer 4 copy"><circle class="cls-1" cx="255.71" cy="289.66" r="23.3"/></g><g id="Layer_4_copy_2" data-name="Layer 4 copy 2"><path class="cls-3" d="M295,264.51A46.58,46.58,0,1,1,279,249.3"/></g></g></svg>