<svg xmlns="http://www.w3.org/2000/svg" viewBox="0 0 465.62 403.24"><defs><style>.cls-1{fill:red;}.cls-1,.cls-4,.cls-5,.cls-6,.cls-7{stroke:#000;stroke-miterlimit:10;}.cls-1,.cls-6{stroke-width:15.49px;}.cls-2{fill:#ff0;}.cls-3{fill:#ff9200;}.cls-4,.cls-6,.cls-7{fill:none;}.cls-4,.cls-5{stroke-width:11.62px;}.cls-5{fill:#fff;}.cls-7{stroke-width:10.65px;}</style></defs><g id="Layer_2" data-name="Layer 2"><g id="Layer_2-2" data-name="Layer 2"><polygon class="cls-1" points="232.81 15.49 452.2 395.49 13.41 395.49 232.81 15.49"/></g><g id="Layer_9" data-name="Layer 9"><polyline class="cls-2" points="250.39 202.08 270.21 126.81 370.52 300.56 312.01 286.09 250.39 202.08"/><polyline class="cls-2" points="281.87 310.65 343.46 372.27 127.66 372.22 181.91 311.81 281.87 310.65"/><polyline class="cls-2" points="152.94 286.09 95.1 300.56 197.34 126.81 217.13 202.63 152.94 286.09"/></g><g id="Layer_8" data-name="Layer 8"><polyline class="cls-3" points="217.13 202.63 197.34 126.81 232.81 62.03 270.21 126.81 250.39 202.08 217.13 202.63"/><polyline class="cls-3" points="152.94 286.09 95.1 300.56 53.72 372.22 127.66 372.22 187.84 310.61 152.94 286.09"/><polyline class="cls-3" points="281.87 310.65 343.46 372.27 411.9 372.22 370.52 300.56 312.01 286.09 281.87 310.65"/></g><g id="Layer_6" data-name="Layer 6"><line class="cls-4" x1="233.76" y1="199.92" x2="232.81" y2="62.03"/><line class="cls-4" x1="197.34" y1="126.81" x2="217.13" y2="202.63"/><line class="cls-4" x1="266.24" y1="208.65" x2="292.1" y2="164.72"/><line class="cls-4" x1="279.17" y1="217.13" x2="307.46" y2="191.33"/><line class="cls-4" x1="293.31" y1="229.94" x2="320.72" y2="214.29"/><line class="cls-4" x1="201.28" y1="208.65" x2="171.8" y2="158.29"/><line class="cls-4" x1="187.84" y1="219.06" x2="158.9" y2="188.62"/><line class="cls-4" x1="144.9" y1="214.29" x2="171.8" y2="229.94"/><line class="cls-4" x1="131.2" y1="238.03" x2="152.94" y2="243.49"/><line class="cls-4" x1="115.74" y1="264.79" x2="139.57" y2="264.79"/><line class="cls-4" x1="152.94" y1="286.09" x2="95.1" y2="300.55"/><line class="cls-4" x1="187.84" y1="310.6" x2="127.66" y2="372.22"/><line class="cls-4" x1="201.28" y1="320.93" x2="171.8" y2="372.22"/><line class="cls-4" x1="217.13" y1="327.5" x2="204.48" y2="372.22"/><line class="cls-4" x1="233.76" y1="329.66" x2="232.81" y2="372.22"/><line class="cls-4" x1="250.39" y1="327.5" x2="262.38" y2="372.22"/><line class="cls-4" x1="266.24" y1="320.93" x2="296.1" y2="372.22"/><line class="cls-4" x1="398.92" y1="364.21" x2="299.59" y2="303.52"/><line class="cls-4" x1="312.01" y1="286.09" x2="370.52" y2="300.55"/><line class="cls-4" x1="348.34" y1="264.07" x2="328.56" y2="264.07"/><line class="cls-4" x1="314.98" y1="343.77" x2="343.46" y2="372.27"/><line class="cls-4" x1="281.87" y1="310.65" x2="305.07" y2="333.86"/><line class="cls-4" x1="131.2" y1="323.02" x2="167.22" y2="300.6"/><line class="cls-4" x1="52.05" y1="372.27" x2="113.77" y2="333.86"/><line class="cls-4" x1="314.98" y1="243.96" x2="336.39" y2="236.78"/><line class="cls-4" x1="271.24" y1="125.35" x2="262.48" y2="158.6"/><line class="cls-4" x1="251.42" y1="200.62" x2="256.91" y2="179.75"/></g><g id="Layer_7" data-name="Layer 7"><path class="cls-5" d="M137,264.79s95.24-145.22,192.8,0"/><path class="cls-5" d="M330.63,264.15s-95.24,145.22-192.8,0"/></g><g id="Layer_2_copy" data-name="Layer 2 copy"><polygon class="cls-6" points="232.81 62.03 411.9 372.22 53.72 372.22 232.81 62.03"/></g><g id="Layer_4" data-name="Layer 4"><circle class="cls-4" cx="233.76" cy="264.79" r="64.87"/></g><g id="Layer_4_copy" data-name="Layer 4 copy"><circle class="cls-4" cx="233.76" cy="264.79" r="21.3"/></g><g id="Layer_4_copy_2" data-name="Layer 4 copy 2"><path class="cls-7" d="M269.62,241.8a42.54,42.54,0,1,1-14.56-13.91"/></g></g></svg>